<svg width="24" height="24" viewBox="0 0 24 24" fill="none" xmlns="http://www.w3.org/2000/svg">
<path d="M4.89026 0.515134C4.10886 -0.200212 2.90946 -0.164486 2.16037 0.584628L0.584622 2.16038C-0.164485 2.90947 -0.200212 4.10887 0.515135 4.89027C1.87564 6.37647 4.25333 8.93447 7.25179 12C4.25339 15.0655 1.87583 17.6234 0.515368 19.1095C-0.199978 19.8909 -0.164252 21.0903 0.584855 21.8395L2.16062 23.4152C2.90973 24.1643 4.10913 24.2001 4.89053 23.4847C6.37666 22.1242 8.93453 19.7467 12.0001 16.7483C15.0655 19.7467 17.6234 22.1242 19.1095 23.4847C19.8909 24.2001 21.0903 24.1643 21.8395 23.4152L23.4152 21.8395C24.1643 21.0903 24.2001 19.8909 23.4847 19.1095C22.1242 17.6234 19.7467 15.0655 16.7483 12C19.7467 8.93447 22.1244 6.37647 23.4849 4.89027C24.2003 4.10887 24.1645 2.90947 23.4155 2.16038L21.8397 0.584628C21.0906 -0.164486 19.8912 -0.200212 19.1098 0.515134C17.6236 1.87563 15.0656 4.25333 12.0001 7.25173C8.93446 4.25333 6.37646 1.87563 4.89026 0.515134Z" fill="#BD1010"/>
</svg>
