<svg width="28" height="23" viewBox="0 0 28 23" fill="none" xmlns="http://www.w3.org/2000/svg">
<path fill-rule="evenodd" clip-rule="evenodd" d="M26.2021 1.71348C27.3597 2.56807 27.6819 4.20699 26.9106 5.44326C22.4412 12.6069 17.939 18.2241 15.2541 21.3637C13.8771 22.9739 11.5538 23.1143 10.0225 21.6609C7.67846 19.4361 4.21831 15.8914 1.1805 11.7483C0.399449 10.6831 0.523236 9.19399 1.42392 8.23519L2.35337 7.24579C3.41478 6.11593 5.1684 6.11566 6.222 7.25339C9.32766 10.6072 12.3339 13.9488 12.3339 13.9488C12.3339 13.9488 16.5787 8.35253 21.8335 1.69117C22.7323 0.551752 24.3318 0.332779 25.4889 1.187L26.2021 1.71348Z" fill="#11B348"/>
</svg>
