<svg width="32" height="32" viewBox="0 0 32 32" fill="none" xmlns="http://www.w3.org/2000/svg">
<path d="M4.66406 8H27.3307C26.4009 19.6229 25.7953 24.7613 25.5139 26.807C25.4063 27.5893 24.9925 28.2667 24.2396 28.505C23.0476 28.8824 20.6499 29.3333 15.9974 29.3333C11.3449 29.3333 8.9472 28.8824 7.7552 28.505C7.00233 28.2667 6.58851 27.5893 6.4809 26.807C6.1995 24.7613 5.59389 19.6229 4.66406 8Z" fill="#6E768B"/>
<path d="M14.5861 2.66699C13.4383 2.66699 12.4193 3.40147 12.0563 4.49039L11.7529 5.40052C9.5788 5.47158 7.8618 5.58895 6.60196 5.70111C5.01572 5.84232 3.74808 6.99966 3.36185 8.54459L3.1834 9.25839C2.88026 10.4709 3.52744 11.5464 4.77198 11.6615C6.59242 11.83 9.93266 12.0003 15.9979 12.0003C22.0631 12.0003 25.4034 11.83 27.2239 11.6615C28.4684 11.5464 29.1156 10.4709 28.8125 9.25839L28.634 8.54459C28.2477 6.99966 26.9801 5.84232 25.3939 5.70111C24.1339 5.58893 22.4165 5.47154 20.2419 5.40049L19.9385 4.49039C19.5755 3.40147 18.5565 2.66699 17.4087 2.66699H14.5861Z" fill="#424244"/>
<path d="M12.0957 15.333C11.3238 15.333 10.7141 15.9879 10.7691 16.7577L11.2457 23.4311C11.2955 24.1271 11.8746 24.6663 12.5723 24.6663C13.3441 24.6663 13.9539 24.0115 13.8989 23.2417L13.4222 16.5682C13.3725 15.8722 12.7934 15.333 12.0957 15.333Z" fill="#424244"/>
<path d="M19.9083 15.333C19.2105 15.333 18.6314 15.8722 18.5817 16.5682L18.105 23.2416C18.05 24.0115 18.6597 24.6663 19.4316 24.6663C20.1293 24.6663 20.7084 24.1271 20.7581 23.4311L21.2348 16.7577C21.2898 15.9879 20.6801 15.333 19.9083 15.333Z" fill="#424244"/>
</svg>
