<svg width="22" height="21" viewBox="0 0 22 21" fill="none" xmlns="http://www.w3.org/2000/svg">
<path d="M14 16V17C14 18.6569 12.6569 20 11 20C9.34315 20 8 18.6569 8 17V16M14 16H8M14 16H17.5905C17.973 16 18.1652 16 18.3201 15.9478C18.616 15.848 18.8475 15.6156 18.9473 15.3198C18.9997 15.1643 18.9997 14.9715 18.9997 14.5859C18.9997 14.4172 18.9995 14.3329 18.9863 14.2524C18.9614 14.1004 18.9024 13.9563 18.8126 13.8312C18.7651 13.7651 18.7047 13.7048 18.5858 13.5858L18.1963 13.1963C18.0706 13.0706 18 12.9001 18 12.7224V9C18 5.134 14.866 1.99999 11 2C7.13401 2.00001 4 5.13401 4 9V12.7224C4 12.9002 3.92924 13.0706 3.80357 13.1963L3.41406 13.5858C3.29477 13.7051 3.23504 13.765 3.1875 13.8312C3.09766 13.9564 3.03815 14.1004 3.0132 14.2524C3 14.3329 3 14.4172 3 14.586C3 14.9715 3 15.1642 3.05245 15.3197C3.15225 15.6156 3.3848 15.848 3.68066 15.9478C3.83556 16 4.02701 16 4.40956 16H8M17.0186 1.01367C18.3978 2.05299 19.4843 3.43177 20.1724 5.01574M4.98197 1.01367C3.60275 2.05299 2.5162 3.43177 1.82812 5.01574" stroke="#411A5F" stroke-width="2" stroke-linecap="round" stroke-linejoin="round"/>
</svg>
