<svg width="18" height="18" viewBox="0 0 18 18" fill="none" xmlns="http://www.w3.org/2000/svg">
<path d="M1 4.2002V13.8002C1 14.9203 1 15.4801 1.21799 15.9079C1.40973 16.2842 1.71547 16.5905 2.0918 16.7822C2.5192 17 3.07899 17 4.19691 17H13.8031C14.921 17 15.48 17 15.9074 16.7822C16.2837 16.5905 16.5905 16.2842 16.7822 15.9079C17 15.4805 17 14.9215 17 13.8036V4.19691C17 3.07899 17 2.5192 16.7822 2.0918C16.5905 1.71547 16.2837 1.40973 15.9074 1.21799C15.4796 1 14.9203 1 13.8002 1H4.2002C3.08009 1 2.51962 1 2.0918 1.21799C1.71547 1.40973 1.40973 1.71547 1.21799 2.0918C1 2.51962 1 3.08009 1 4.2002Z" stroke="#411A5F" stroke-width="2" stroke-linecap="round" stroke-linejoin="round"/>
</svg>
