<svg width="22" height="22" viewBox="0 0 22 22" fill="none" xmlns="http://www.w3.org/2000/svg">
<path d="M1.33301 9.33628C1.01976 9.0466 1.18992 8.5229 1.61361 8.47267L7.61719 7.76058C7.78987 7.7401 7.93986 7.63166 8.0127 7.47376L10.5449 1.98397C10.7236 1.59654 11.2744 1.59646 11.4531 1.9839L13.9854 7.47365C14.0582 7.63155 14.2072 7.74028 14.3799 7.76075L20.3838 8.47267C20.8075 8.5229 20.9772 9.04675 20.6639 9.33644L16.2258 13.4414C16.0981 13.5595 16.0413 13.7352 16.0752 13.9058L17.2531 19.8355C17.3362 20.2539 16.8908 20.5782 16.5185 20.3698L11.2432 17.4161C11.0915 17.3312 10.9071 17.3316 10.7554 17.4165L5.47949 20.369C5.10718 20.5774 4.66099 20.2539 4.74414 19.8354L5.92219 13.9061C5.95608 13.7356 5.89938 13.5594 5.77172 13.4414L1.33301 9.33628Z" stroke="#411A5F" stroke-width="2" stroke-linecap="round" stroke-linejoin="round"/>
</svg>
