<svg width="176" height="172" viewBox="0 0 176 172" fill="none" xmlns="http://www.w3.org/2000/svg">
<g filter="url(#filter0_d_235_2024)">
<path d="M77.0453 7.35409C81.759 -1.45136 94.2357 -1.45136 98.9495 7.35409L119.284 45.3396L161.167 53.33C170.837 55.1746 174.678 67.1129 167.938 74.375L138.62 105.967L144.101 148.993C145.364 158.909 135.284 166.304 126.377 161.996L87.9974 143.436L49.6178 161.996C40.7107 166.304 30.6311 158.909 31.8941 148.993L37.3745 105.967L8.05652 74.375C1.31694 67.1125 5.15819 55.1746 14.8281 53.33L56.7107 45.3396L77.0453 7.35409Z" fill="url(#paint0_linear_235_2024)"/>
</g>
<defs>
<filter id="filter0_d_235_2024" x="0.664062" y="0.75" width="174.664" height="170.5" filterUnits="userSpaceOnUse" color-interpolation-filters="sRGB">
<feFlood flood-opacity="0" result="BackgroundImageFix"/>
<feColorMatrix in="SourceAlpha" type="matrix" values="0 0 0 0 0 0 0 0 0 0 0 0 0 0 0 0 0 0 127 0" result="hardAlpha"/>
<feOffset dy="4"/>
<feGaussianBlur stdDeviation="2"/>
<feComposite in2="hardAlpha" operator="out"/>
<feColorMatrix type="matrix" values="0 0 0 0 0.572549 0 0 0 0 0.588235 0 0 0 0 0.85098 0 0 0 1 0"/>
<feBlend mode="normal" in2="BackgroundImageFix" result="effect1_dropShadow_235_2024"/>
<feBlend mode="normal" in="SourceGraphic" in2="effect1_dropShadow_235_2024" result="shape"/>
</filter>
<linearGradient id="paint0_linear_235_2024" x1="87.9974" y1="0.75" x2="87.9974" y2="163.25" gradientUnits="userSpaceOnUse">
<stop stop-color="#FFF500"/>
<stop offset="1" stop-color="#E3BB56"/>
</linearGradient>
</defs>
</svg>
