<svg width="16" height="16" viewBox="0 0 16 16" fill="none" xmlns="http://www.w3.org/2000/svg">
<path fill-rule="evenodd" clip-rule="evenodd" d="M3.85149 4.78437C3.96549 2.8463 5.57042 1.33301 7.51182 1.33301H8.49205C10.4284 1.33301 12.0291 2.84233 12.1428 4.77531C12.1753 5.32664 11.7546 5.79987 11.2033 5.83231C10.6519 5.86474 10.1787 5.44411 10.1463 4.89277C10.0948 4.01691 9.36942 3.33301 8.49205 3.33301H7.51182C6.62939 3.33301 5.89985 4.02087 5.84805 4.90181L5.66235 8.05841C5.62992 8.60974 5.15669 9.03037 4.60535 8.99794C4.05402 8.96551 3.63339 8.49227 3.66582 7.94094L3.85149 4.78437Z" fill="#424244"/>
<path d="M2.11984 7.89726C2.18504 7.32009 2.60916 6.91916 3.18646 6.85523C3.9978 6.76536 5.4649 6.66699 8 6.66699C10.6051 6.66699 12.0675 6.77086 12.8513 6.86263C13.3781 6.92433 13.7733 7.28136 13.8478 7.80653C13.926 8.35839 14 9.25383 14 10.667C14 12.0802 13.926 12.9756 13.8478 13.5275C13.7733 14.0526 13.3781 14.4097 12.8513 14.4714C12.0675 14.5631 10.6051 14.667 8 14.667C5.39493 14.667 3.93247 14.5631 3.14873 14.4714C2.6219 14.4097 2.22667 14.0526 2.15221 13.5275C2.07397 12.9756 2 12.0802 2 10.667C2 9.32876 2.05685 8.45483 2.11984 7.89726Z" fill="#6E768B"/>
<path d="M6.33594 10.6667C6.33594 10.3299 6.5906 10.0491 6.9268 10.0303C7.21277 10.0143 7.58477 10 8.0026 10C8.42044 10 8.79244 10.0143 9.0784 10.0303C9.4146 10.0491 9.66927 10.3299 9.66927 10.6667C9.66927 11.0034 9.4146 11.2843 9.0784 11.3031C8.79244 11.3191 8.42044 11.3333 8.0026 11.3333C7.58477 11.3333 7.21277 11.3191 6.9268 11.3031C6.5906 11.2843 6.33594 11.0034 6.33594 10.6667Z" fill="#424244"/>
</svg>
