<svg width="40" height="40" viewBox="0 0 40 40" fill="none" xmlns="http://www.w3.org/2000/svg">
<path d="M2.85911 8.57483C3.0139 7.09195 4.02801 5.95633 5.49908 5.71374C7.55542 5.37466 11.2432 5 17.5 5C23.7568 5 27.4446 5.37466 29.5009 5.71374C30.972 5.95633 31.9861 7.09195 32.1409 8.57483C32.3201 10.2918 32.5 13.1089 32.5 17.5C32.5 21.8911 32.3201 24.7082 32.1409 26.4252C31.9861 27.9081 30.972 29.0437 29.5009 29.2863C27.4446 29.6253 23.7568 30 17.5 30C11.2432 30 7.55542 29.6253 5.49909 29.2863C4.02801 29.0437 3.0139 27.9081 2.85911 26.4252C2.67988 24.7082 2.5 21.8911 2.5 17.5C2.5 13.1089 2.67988 10.2918 2.85911 8.57483Z" fill="#725371"/>
<path d="M37.1409 13.5748C36.9861 12.0919 35.972 10.9563 34.5009 10.7137C32.4446 10.3747 28.7568 10 22.5 10C16.2432 10 12.5554 10.3747 10.4991 10.7137C9.028 10.9563 8.0139 12.0919 7.85911 13.5748C7.67988 15.2918 7.5 18.1089 7.5 22.5C7.5 26.8911 7.67988 29.7082 7.85911 31.4252C8.0139 32.9081 9.028 34.0437 10.4991 34.2863C12.5554 34.6253 16.2432 35 22.5 35C28.7568 35 32.4446 34.6253 34.5009 34.2863C35.972 34.0437 36.9861 32.9081 37.1409 31.4252C37.3201 29.7082 37.5 26.8911 37.5 22.5C37.5 18.1089 37.3201 15.2918 37.1409 13.5748Z" fill="#D3AFDF"/>
</svg>
