<svg width="84" height="74" viewBox="0 0 84 74" fill="none" xmlns="http://www.w3.org/2000/svg">
<path d="M79.2607 41.9774C83.3461 35.2911 84.6755 27.0074 82.8984 19.3053C79.102 1.76042 58.0782 -5.40881 44.9826 6.34865C43.9455 7.27363 43.0232 8.33988 42.0026 9.40321C40.9822 8.33988 40.0597 7.27363 39.0226 6.34865C25.927 -5.40881 4.90338 1.76042 1.10677 19.3053C-0.670205 27.0074 0.658919 35.2911 4.74446 41.9774C11.8935 53.6961 23.4212 62.8213 34.6661 71.0909C39.0332 74.3026 44.972 74.3026 49.3391 71.0909C60.5841 62.8213 72.1116 53.6961 79.2607 41.9774Z" fill="url(#paint0_linear_453_5587)"/>
<defs>
<linearGradient id="paint0_linear_453_5587" x1="42.0026" y1="0.583008" x2="42.0026" y2="73.4997" gradientUnits="userSpaceOnUse">
<stop stop-color="#FB0303"/>
<stop offset="1" stop-color="#A71818"/>
</linearGradient>
</defs>
</svg>
