<svg width="40" height="40" viewBox="0 0 40 40" fill="none" xmlns="http://www.w3.org/2000/svg">
<path d="M3.77559 10.4374C3.93235 8.9846 4.91638 7.86437 6.35205 7.59237C8.58685 7.16894 12.7647 6.66602 20.0026 6.66602C27.2405 6.66602 31.4184 7.16893 33.6532 7.59236C35.0889 7.86437 36.0729 8.9846 36.2296 10.4374C36.4412 12.3984 36.6693 15.8589 36.6693 21.666C36.6693 27.4731 36.4412 30.9336 36.2296 32.8946C36.0729 34.3474 35.0889 35.4677 33.6532 35.7397C31.4184 36.1631 27.2405 36.666 20.0026 36.666C12.7647 36.666 8.58685 36.1631 6.35205 35.7397C4.91638 35.4677 3.93235 34.3474 3.77559 32.8946C3.56398 30.9336 3.33594 27.4731 3.33594 21.666C3.33594 15.8589 3.56398 12.3984 3.77559 10.4374Z" fill="#6E768B"/>
<path d="M29.8574 3.38608C30.3784 3.42903 30.7364 3.81061 30.7717 4.33213C30.8042 4.81124 30.8324 5.54928 30.8324 6.66732C30.8324 6.84692 30.8316 7.01672 30.8303 7.17721C31.9989 7.31118 32.9259 7.45659 33.6494 7.59367C35.0851 7.86568 36.0691 8.9859 36.2259 10.4387C36.3055 11.1765 36.3874 12.1266 36.4587 13.334H3.53906C3.6103 12.1266 3.69225 11.1765 3.77186 10.4387C3.92862 8.9859 4.91265 7.86568 6.34833 7.59367C7.07185 7.45658 7.99903 7.31116 9.16777 7.17718C9.16644 7.01669 9.16569 6.84691 9.16569 6.66732C9.16569 5.54928 9.19385 4.81124 9.22635 4.33213C9.26169 3.81061 9.61969 3.42903 10.1406 3.38608C10.4951 3.35685 10.9887 3.33398 11.6657 3.33398C12.3427 3.33398 12.8363 3.35685 13.1908 3.38608C13.7117 3.42903 14.0697 3.81061 14.105 4.33213C14.1375 4.81124 14.1657 5.54928 14.1657 6.66732C14.1657 6.70964 14.1657 6.75143 14.1656 6.79267C15.8431 6.71472 17.7768 6.66732 19.9989 6.66732C22.2211 6.66732 24.1549 6.71473 25.8324 6.79268L25.8324 6.66732C25.8324 5.54928 25.8605 4.81124 25.893 4.33213C25.9284 3.81061 26.2864 3.42903 26.8073 3.38608C27.1618 3.35685 27.6554 3.33398 28.3324 3.33398C29.0094 3.33398 29.5029 3.35685 29.8574 3.38608Z" fill="#424244"/>
<path fill-rule="evenodd" clip-rule="evenodd" d="M28.498 18.1789C29.1559 18.5287 29.3689 19.3304 28.9537 19.926C25.5215 24.8491 22.3184 28.095 20.7454 29.5668C20.1627 30.112 19.264 30.1487 18.6433 29.6423C17.3358 28.5757 15.0284 26.4985 12.738 23.487C12.373 23.0071 12.4357 22.3502 12.8719 21.9266L13.8823 20.9458C14.3738 20.4687 15.1767 20.4398 15.6838 20.902C17.8167 22.8462 19.7291 25.0768 19.7291 25.0768C19.7291 25.0768 22.2766 21.6041 25.9284 17.8893C26.338 17.4726 26.9973 17.3811 27.5219 17.66L28.498 18.1789Z" fill="#424244"/>
</svg>
