<svg width="40" height="40" viewBox="0 0 40 40" fill="none" xmlns="http://www.w3.org/2000/svg">
<path d="M2.85674 17.5943C2.1902 18.3478 2.49264 19.3732 3.47301 19.5848C4.24064 19.7503 5.2958 19.9352 6.71722 20.1076C6.68342 21.2453 6.6628 22.5654 6.6628 24.093C6.6628 28.1656 6.80933 30.7635 6.96162 32.3638C7.10134 33.8319 8.09731 34.9503 9.544 35.1895C11.4246 35.5005 14.6787 35.8327 19.9994 35.8327C25.3201 35.8327 28.5743 35.5005 30.4548 35.1895C31.9015 34.9503 32.8975 33.8319 33.0372 32.3638C33.1895 30.7635 33.336 28.1656 33.336 24.093C33.336 22.5656 33.3154 21.2455 33.2816 20.1078C34.7035 19.9353 35.7589 19.7505 36.5268 19.5848C37.5074 19.3733 37.8098 18.3477 37.1431 17.594C35.9732 16.2717 33.7979 14.0174 30.0027 10.6763C25.6077 6.80727 22.6608 5.12414 21.1624 4.42625C20.4174 4.07923 19.5831 4.07928 18.8381 4.42637C17.34 5.12433 14.3934 6.80748 9.99784 10.6763C6.20161 14.0176 4.02636 16.272 2.85674 17.5943Z" fill="#6E768B"/>
<path d="M25.7987 35.6761C25.8183 34.7207 25.8307 33.5799 25.8307 32.2229C25.8307 29.4695 25.7796 27.6063 25.7212 26.3762C25.6555 24.9905 24.9036 23.8348 23.6207 23.6049C22.7762 23.4535 21.6016 23.334 19.9974 23.334C18.3932 23.334 17.2186 23.4535 16.3741 23.6049C15.0912 23.8348 14.3393 24.9905 14.2736 26.3762C14.2151 27.6063 14.1641 29.4695 14.1641 32.2229C14.1641 33.58 14.1765 34.7207 14.1961 35.6762C15.7803 35.7718 17.6952 35.834 19.9968 35.834C22.299 35.834 24.2142 35.7718 25.7987 35.6761Z" fill="#424244"/>
</svg>
