<svg width="15" height="27" viewBox="0 0 15 27" fill="none" xmlns="http://www.w3.org/2000/svg">
<path d="M3.64295 12.0559C3.31119 12.37 3.15166 12.7955 3.16438 13.3321H3.16291V15.8258C3.16291 16.8055 3.93388 17.5999 4.88495 17.5999H6.49516C7.44624 17.5999 8.21731 16.8055 8.21731 15.8258V15.277L8.45851 15.1611C9.53863 14.6351 10.4965 14.0891 11.3321 13.523C12.1676 12.9569 12.8451 12.341 13.3645 11.6754C13.9055 11.0073 14.286 10.2673 14.5059 9.45512C14.7452 8.61834 14.8086 7.66637 14.6959 6.59908C14.4658 4.41996 13.6137 2.76058 12.1394 1.62084C10.6867 0.478631 8.68689 0.0502421 6.14011 0.335531C5.25519 0.434756 4.4336 0.61678 3.67546 0.881718C2.91485 1.12438 2.26077 1.44512 1.71335 1.84404C1.16581 2.24285 0.745174 2.70613 0.451437 3.23398C0.179299 3.75947 0.0773748 4.34458 0.145437 4.98943C0.19775 5.48578 0.360311 5.92442 0.614899 6.29477C1.1504 7.07349 2.21983 6.81812 2.99202 6.29094C3.18541 6.15887 3.38308 6.03534 3.5849 5.92026C4.22109 5.53404 4.9817 5.29127 5.86663 5.19215C6.83784 5.08337 7.55435 5.25054 8.01605 5.69379C8.49935 6.13457 8.77149 6.64408 8.83258 7.22222C8.90064 7.86707 8.76384 8.43362 8.42229 8.92175C8.07838 9.38784 7.59564 9.77934 6.97396 10.0965L5.10894 11.0479C4.50886 11.3627 4.02016 11.6986 3.64295 12.0559Z" fill="#424244"/>
<path d="M2.50781 22.9721C2.50781 22.0327 2.77916 21.2722 3.32197 20.6907C3.88639 20.1092 4.65713 19.8184 5.63408 19.8184C6.61103 19.8184 7.37085 20.1092 7.91366 20.6907C8.47807 21.2722 8.76034 22.0327 8.76034 22.9721C8.76034 23.9114 8.47807 24.6719 7.91366 25.2535C7.37085 25.835 6.61103 26.1258 5.63408 26.1258C4.65713 26.1258 3.88639 25.835 3.32197 25.2535C2.77916 24.6719 2.50781 23.9114 2.50781 22.9721Z" fill="#424244"/>
</svg>
