<svg width="40" height="40" viewBox="0 0 40 40" fill="none" xmlns="http://www.w3.org/2000/svg">
<path d="M16.6051 3.62881C16.6841 3.43267 16.8023 3.25533 16.9806 3.1461C17.3819 2.90039 18.2967 2.5 19.9974 2.5C21.6981 2.5 22.6129 2.90039 23.0141 3.14611C23.1925 3.25533 23.3106 3.43267 23.3897 3.62881C23.6625 4.30548 24.3324 6.02775 24.7282 7.56471C25.9913 8.06396 27.1595 8.75725 28.1974 9.60867C29.7024 9.189 31.5035 8.91858 32.2156 8.82083C32.4217 8.79258 32.6316 8.80817 32.8136 8.91092C33.2231 9.14217 34.0208 9.74925 34.8711 11.25C35.7215 12.7507 35.8386 13.7581 35.8303 14.2351C35.8267 14.4471 35.7351 14.6401 35.6079 14.8078C35.169 15.3872 34.0393 16.8404 32.9305 17.9584C33.0308 18.624 33.0829 19.3058 33.0829 20C33.0829 20.6942 33.0308 21.3759 32.9305 22.0415C34.0393 23.1595 35.169 24.6127 35.6079 25.1921C35.7351 25.3599 35.8267 25.5528 35.8303 25.7648C35.8386 26.2418 35.7215 27.2492 34.8711 28.75C34.0208 30.2507 33.2231 30.8577 32.8136 31.089C32.6316 31.1917 32.4217 31.2073 32.2156 31.1791C31.5035 31.0813 29.7024 30.811 28.1975 30.3913C27.1596 31.2427 25.9914 31.936 24.7282 32.4353C24.3324 33.9722 23.6625 35.6945 23.3897 36.3712C23.3106 36.5673 23.1925 36.7447 23.0141 36.8539C22.6129 37.0996 21.6981 37.5 19.9974 37.5C18.2967 37.5 17.3819 37.0996 16.9806 36.8539C16.8023 36.7447 16.6841 36.5673 16.6051 36.3712C16.3323 35.6945 15.6624 33.9722 15.2666 32.4353C14.0034 31.936 12.8352 31.2427 11.7973 30.3913C10.2924 30.811 8.49131 31.0813 7.77925 31.1791C7.57303 31.2073 7.3632 31.1917 7.18119 31.089C6.77171 30.8577 5.97402 30.2507 5.12368 28.75C4.27333 27.2492 4.15625 26.2418 4.16445 25.7648C4.1681 25.5528 4.25974 25.3599 4.3869 25.1921C4.82585 24.6127 5.9555 23.1595 7.06433 22.0415C6.96397 21.3759 6.9119 20.6942 6.9119 20C6.9119 19.3058 6.96397 18.624 7.06434 17.9584C5.95551 16.8404 4.82585 15.3872 4.3869 14.8078C4.25974 14.6401 4.1681 14.4471 4.16445 14.2351C4.15625 13.7581 4.27333 12.7507 5.12368 11.25C5.97402 9.74925 6.77171 9.14217 7.18119 8.91092C7.3632 8.80817 7.57303 8.79258 7.77925 8.82083C8.49131 8.91858 10.2924 9.189 11.7974 9.60867C12.8353 8.75725 14.0034 8.06396 15.2666 7.56471C15.6624 6.02775 16.3323 4.30548 16.6051 3.62881Z" fill="#6E768B"/>
<path d="M26.6693 20.0007C26.6693 23.6826 23.6845 26.6673 20.0026 26.6673C16.3207 26.6673 13.3359 23.6826 13.3359 20.0007C13.3359 16.3187 16.3207 13.334 20.0026 13.334C23.6845 13.334 26.6693 16.3187 26.6693 20.0007Z" fill="#424244"/>
</svg>
