<svg width="40" height="40" viewBox="0 0 40 40" fill="none" xmlns="http://www.w3.org/2000/svg">
<path d="M23.4435 13.0913C24.8585 11.8277 26.5676 12.6913 26.6721 14.7133C26.7316 15.8623 26.7829 17.3233 26.8116 19.1684C27.1368 19.1672 27.478 19.1667 27.8359 19.1667C30.5095 19.1667 32.2504 19.2007 33.3494 19.2372C34.454 19.2739 35.5149 19.8027 35.7214 21.009C35.7905 21.4128 35.8359 21.9047 35.8359 22.5C35.8359 23.0953 35.7905 23.5872 35.7214 23.991C35.5149 25.1973 34.454 25.7261 33.3494 25.7628C32.2504 25.7993 30.5095 25.8333 27.8359 25.8333C27.478 25.8333 27.1368 25.8328 26.8116 25.8316C26.7829 27.6763 26.7316 29.1373 26.6722 30.2863C26.5676 32.3087 24.8581 33.1724 23.4428 31.9086C22.5916 31.1485 21.5377 30.157 20.2645 28.8761C18.2439 26.8432 17.0517 25.2963 16.3577 24.2357C15.6619 23.1722 15.662 21.8287 16.3578 20.7652C17.0519 19.7047 18.244 18.1579 20.2645 16.1246C21.5381 14.8432 22.5922 13.8514 23.4435 13.0913Z" fill="#424244"/>
<path d="M9.791 12.0625C8.7943 12.1762 8.2285 13.0264 8.1696 14.0279C8.0887 15.4042 8 17.8575 8 22C8 26.1425 8.0887 28.5958 8.1696 29.9721C8.2285 30.9736 8.7943 31.8238 9.791 31.9375C10.1237 31.9755 10.5232 32 11 32C11.4768 32 11.8763 31.9755 12.209 31.9375C13.2057 31.8238 13.7715 30.9736 13.8304 29.9721C13.9113 28.5958 14 26.1425 14 22C14 17.8575 13.9113 15.4042 13.8304 14.0279C13.7715 13.0264 13.2057 12.1762 12.209 12.0625C11.8763 12.0245 11.4768 12 11 12C10.5232 12 10.1237 12.0245 9.791 12.0625Z" fill="#424244"/>
</svg>
