<svg width="36" height="36" viewBox="0 0 36 36" fill="none" xmlns="http://www.w3.org/2000/svg">
<path d="M3.39568 9.39427C3.53677 8.08672 4.4224 7.07852 5.7145 6.83371C7.72582 6.45263 11.4859 6 18 6C24.5141 6 28.2742 6.45263 30.2855 6.83371C31.5776 7.07852 32.4632 8.08672 32.6043 9.39427C32.7947 11.1592 33 14.2736 33 19.5C33 24.7264 32.7947 27.8408 32.6043 29.6057C32.4632 30.9133 31.5776 31.9215 30.2855 32.1663C28.2742 32.5474 24.5141 33 18 33C11.4859 33 7.72582 32.5474 5.7145 32.1663C4.4224 31.9215 3.53677 30.9133 3.39568 29.6057C3.20524 27.8408 3 24.7264 3 19.5C3 14.2736 3.20524 11.1592 3.39568 9.39427Z" fill="#6E768B"/>
<path d="M26.874 3.04688C27.3429 3.08554 27.6651 3.42896 27.6969 3.89833C27.7261 4.32953 27.7515 4.99376 27.7515 6C27.7515 6.16164 27.7508 6.31446 27.7496 6.4589C28.8013 6.57948 29.6357 6.71035 30.2868 6.83371C31.5789 7.07852 32.4645 8.08672 32.6056 9.39427C32.6773 10.0582 32.751 10.9133 32.8152 12H3.1875C3.25162 10.9133 3.32536 10.0582 3.39702 9.39427C3.5381 8.08672 4.42372 7.07853 5.71584 6.83371C6.367 6.71033 7.20147 6.57946 8.25334 6.45887C8.25214 6.31444 8.25146 6.16163 8.25146 6C8.25146 4.99376 8.27681 4.32953 8.30606 3.89833C8.33786 3.42896 8.66006 3.08554 9.12889 3.04688C9.44794 3.02058 9.89216 3 10.5015 3C11.1108 3 11.555 3.02058 11.874 3.04688C12.3429 3.08554 12.6651 3.42896 12.6969 3.89833C12.7261 4.32953 12.7515 4.99376 12.7515 6C12.7515 6.03809 12.7515 6.0757 12.7514 6.11282C14.2611 6.04266 16.0014 6 18.0013 6C20.0013 6 21.7417 6.04267 23.2515 6.11283L23.2515 6C23.2515 4.99376 23.2768 4.32953 23.3061 3.89833C23.3379 3.42896 23.6601 3.08554 24.1289 3.04688C24.4479 3.02058 24.8922 3 25.5015 3C26.1108 3 26.555 3.02058 26.874 3.04688Z" fill="#424244"/>
<path fill-rule="evenodd" clip-rule="evenodd" d="M8.28367 17.3993C8.30985 16.9685 8.59013 16.6349 9.01808 16.5791C9.34845 16.5359 9.82597 16.5 10.5 16.5C11.174 16.5 11.6515 16.5359 11.9819 16.5791C12.4099 16.6349 12.6901 16.9685 12.7163 17.3993C12.7351 17.7074 12.75 18.1433 12.75 18.75C12.75 19.3567 12.7351 19.7926 12.7163 20.1007C12.6901 20.5315 12.4099 20.8651 11.9819 20.9209C11.6515 20.9641 11.174 21 10.5 21C9.82597 21 9.34845 20.9641 9.01808 20.9209C8.59013 20.8651 8.30985 20.5315 8.28367 20.1007C8.26492 19.7926 8.25 19.3567 8.25 18.75C8.25 18.1433 8.26492 17.7074 8.28367 17.3993ZM8.28367 24.8993C8.30985 24.4685 8.59013 24.1349 9.01808 24.0791C9.34845 24.0359 9.82597 24 10.5 24C11.174 24 11.6515 24.0359 11.9819 24.0791C12.4099 24.1349 12.6901 24.4685 12.7163 24.8993C12.7351 25.2074 12.75 25.6433 12.75 26.25C12.75 26.8567 12.7351 27.2926 12.7163 27.6007C12.6901 28.0315 12.4099 28.3651 11.9819 28.4209C11.6515 28.4641 11.174 28.5 10.5 28.5C9.82597 28.5 9.34845 28.4641 9.01808 28.4209C8.59013 28.3651 8.30985 28.0315 8.28367 27.6007C8.26492 27.2926 8.25 26.8567 8.25 26.25C8.25 25.6433 8.26492 25.2074 8.28367 24.8993ZM16.5181 16.5791C16.0901 16.6349 15.8099 16.9685 15.7837 17.3993C15.7649 17.7074 15.75 18.1433 15.75 18.75C15.75 19.3567 15.7649 19.7926 15.7837 20.1007C15.8099 20.5315 16.0901 20.8651 16.5181 20.9209C16.8484 20.9641 17.326 21 18 21C18.674 21 19.1516 20.9641 19.4819 20.9209C19.9099 20.8651 20.1901 20.5315 20.2163 20.1007C20.2351 19.7926 20.25 19.3567 20.25 18.75C20.25 18.1433 20.2351 17.7074 20.2163 17.3993C20.1901 16.9685 19.9099 16.6349 19.4819 16.5791C19.1516 16.5359 18.674 16.5 18 16.5C17.326 16.5 16.8484 16.5359 16.5181 16.5791ZM15.7837 24.8993C15.8099 24.4685 16.0901 24.1349 16.5181 24.0791C16.8484 24.0359 17.326 24 18 24C18.674 24 19.1516 24.0359 19.4819 24.0791C19.9099 24.1349 20.1901 24.4685 20.2163 24.8993C20.2351 25.2074 20.25 25.6433 20.25 26.25C20.25 26.8567 20.2351 27.2926 20.2163 27.6007C20.1901 28.0315 19.9099 28.3651 19.4819 28.4209C19.1516 28.4641 18.674 28.5 18 28.5C17.326 28.5 16.8484 28.4641 16.5181 28.4209C16.0901 28.3651 15.8099 28.0315 15.7837 27.6007C15.7649 27.2926 15.75 26.8567 15.75 26.25C15.75 25.6433 15.7649 25.2074 15.7837 24.8993ZM24.0181 16.5791C23.5901 16.6349 23.3099 16.9685 23.2837 17.3993C23.2649 17.7074 23.25 18.1433 23.25 18.75C23.25 19.3567 23.2649 19.7926 23.2837 20.1007C23.3099 20.5315 23.5901 20.8651 24.0181 20.9209C24.3485 20.9641 24.826 21 25.5 21C26.174 21 26.6515 20.9641 26.9819 20.9209C27.4099 20.8651 27.6902 20.5315 27.7163 20.1007C27.7351 19.7926 27.75 19.3567 27.75 18.75C27.75 18.1433 27.7351 17.7074 27.7163 17.3993C27.6902 16.9685 27.4099 16.6349 26.9819 16.5791C26.6515 16.5359 26.174 16.5 25.5 16.5C24.826 16.5 24.3485 16.5359 24.0181 16.5791Z" fill="#424244"/>
</svg>
