<svg width="32" height="32" viewBox="0 0 32 32" fill="none" xmlns="http://www.w3.org/2000/svg">
<path d="M14.0679 31.4577C12.7334 31.2687 11.9612 30.0858 11.9129 28.7389C11.8545 27.1161 11.7882 24.4318 11.7606 20.2372C7.56596 20.2095 4.88166 20.1432 3.25887 20.0849C1.9119 20.0365 0.728987 19.2643 0.540004 17.9298C0.465204 17.4014 0.414062 16.7618 0.414062 16.0003C0.414062 15.2389 0.465204 14.5992 0.540004 14.0708C0.728987 12.7363 1.9119 11.9641 3.25887 11.9158C4.88166 11.8574 7.56596 11.7911 11.7606 11.7635C11.7882 7.56889 11.8545 4.88459 11.9129 3.2618C11.9612 1.91483 12.7334 0.731917 14.0679 0.542933C14.5963 0.468133 15.2359 0.416992 15.9974 0.416992C16.7589 0.416992 17.3985 0.468133 17.9269 0.542933C19.2614 0.731917 20.0336 1.91483 20.0819 3.2618C20.1403 4.88459 20.2066 7.56889 20.2342 11.7635C24.4288 11.7911 27.1131 11.8574 28.7359 11.9158C30.0829 11.9641 31.2658 12.7363 31.4548 14.0708C31.5296 14.5992 31.5807 15.2389 31.5807 16.0003C31.5807 16.7618 31.5296 17.4014 31.4548 17.9298C31.2658 19.2643 30.0829 20.0365 28.7359 20.0849C27.1131 20.1432 24.4288 20.2095 20.2342 20.2372C20.2066 24.4318 20.1403 27.1161 20.0819 28.7389C20.0336 30.0858 19.2614 31.2687 17.9269 31.4577C17.3985 31.5325 16.7589 31.5837 15.9974 31.5837C15.2359 31.5837 14.5963 31.5325 14.0679 31.4577Z" fill="#242424"/>
</svg>
