<svg width="28" height="28" viewBox="0 0 28 28" fill="none" xmlns="http://www.w3.org/2000/svg">
<path fill-rule="evenodd" clip-rule="evenodd" d="M6.74205 8.3729C6.94155 4.98127 9.75019 2.33301 13.1476 2.33301H14.8472C18.2447 2.33301 21.0533 4.98127 21.2528 8.3729L21.5777 13.8969C21.6345 14.8617 20.8984 15.6899 19.9336 15.7466C18.9687 15.8034 18.1406 15.0673 18.0838 14.1025L17.7588 8.57841C17.6682 7.03677 16.3915 5.83301 14.8472 5.83301H13.1476C11.6034 5.83301 10.3267 7.03677 10.236 8.57841L9.91107 14.1025C9.85431 15.0673 9.02615 15.8034 8.06132 15.7466C7.09649 15.6899 6.36038 14.8617 6.41714 13.8969L6.74205 8.3729Z" fill="#686868"/>
<path d="M3.70971 13.82C3.82381 12.8099 4.56603 12.1083 5.57631 11.9964C6.99615 11.8391 9.56357 11.667 14 11.667C18.5589 11.667 21.1182 11.8488 22.4897 12.0094C23.4117 12.1173 24.1033 12.7421 24.2336 13.6612C24.3706 14.6269 24.5 16.194 24.5 18.667C24.5 21.14 24.3706 22.707 24.2336 23.6728C24.1033 24.5919 23.4117 25.2167 22.4897 25.3246C21.1182 25.4852 18.5589 25.667 14 25.667C9.44113 25.667 6.88182 25.4852 5.51028 25.3246C4.58833 25.2167 3.89668 24.5919 3.76637 23.6728C3.62944 22.707 3.5 21.14 3.5 18.667C3.5 16.3251 3.59949 14.7957 3.70971 13.82Z" fill="#B2B2B2"/>
<path fill-rule="evenodd" clip-rule="evenodd" d="M15.1276 19.5422C15.8451 19.1442 16.3307 18.3789 16.3307 17.5003C16.3307 16.2117 15.286 15.167 13.9974 15.167C12.7088 15.167 11.6641 16.2117 11.6641 17.5003C11.6641 18.3789 12.1497 19.1442 12.8672 19.5422L12.5829 21.8165C12.5543 22.045 12.5942 22.2851 12.7792 22.4224C12.9904 22.5792 13.3656 22.7503 13.9974 22.7503C14.6292 22.7503 15.0044 22.5792 15.2156 22.4224C15.4005 22.2851 15.4405 22.045 15.4119 21.8165L15.1276 19.5422Z" fill="#686868"/>
</svg>
