<svg width="32" height="32" viewBox="0 0 32 32" fill="none" xmlns="http://www.w3.org/2000/svg">
<path d="M17.4251 2.7063C17.4251 2.7063 18.9667 3.29935 21.8 6.14935C24.6229 8.98888 25.2149 10.5422 25.2193 10.5535C25.2881 11.9066 25.3307 13.489 25.3307 15.3327C25.3307 20.8335 24.9507 24.0087 24.6308 25.7071C24.4253 26.7982 23.5789 27.5461 22.4813 27.6652C20.9995 27.826 18.3849 27.9993 13.9974 27.9993C9.60986 27.9993 6.99526 27.826 5.51356 27.6652C4.4159 27.5461 3.56949 26.7982 3.36397 25.7071C3.04405 24.0087 2.66406 20.8335 2.66406 15.3327C2.66406 9.83188 3.04405 6.65671 3.36397 4.95826C3.56949 3.86715 4.4159 3.11929 5.51356 3.00015C6.99526 2.83933 9.60986 2.66602 13.9974 2.66602C15.2879 2.66602 16.4251 2.68104 17.4251 2.7063Z" fill="#6E768B"/>
<path d="M25.2221 10.5543C23.4091 11.013 21.2685 11.0435 19.4195 10.4753C18.6379 10.2351 18.0284 9.6226 17.7646 8.84446C17.1073 6.90606 16.945 4.53334 17.428 2.70703C17.428 2.70703 18.9695 3.30008 21.8029 6.15008C24.6362 9.00006 25.2221 10.5543 25.2221 10.5543Z" fill="#424244"/>
<path d="M22.1657 18.0104C22.6555 17.1085 24.006 17.1085 24.4957 18.0104L25.9101 20.6154L28.9374 21.1848C29.9369 21.3728 30.3409 22.5296 29.6597 23.2532L27.5041 25.5435L27.8978 28.591C28.0261 29.5836 26.9459 30.313 26.0092 29.8664L23.3307 28.5892L20.6523 29.8664C19.7156 30.313 18.6354 29.5836 18.7637 28.591L19.1573 25.5435L17.0017 23.2532C16.3206 22.5296 16.7246 21.3728 17.7241 21.1848L20.7514 20.6154L22.1657 18.0104Z" fill="#FCFF58"/>
</svg>
