<svg width="32" height="32" viewBox="0 0 32 32" fill="none" xmlns="http://www.w3.org/2000/svg">
<path d="M17.4251 2.7063C17.4251 2.7063 18.9667 3.29935 21.8 6.14935C24.6229 8.98888 25.2149 10.5422 25.2193 10.5535C25.2881 11.9066 25.3307 13.489 25.3307 15.3327C25.3307 20.8335 24.9507 24.0087 24.6308 25.7071C24.4253 26.7982 23.5789 27.5461 22.4813 27.6652C20.9995 27.826 18.3849 27.9993 13.9974 27.9993C9.60986 27.9993 6.99526 27.826 5.51356 27.6652C4.4159 27.5461 3.56949 26.7982 3.36397 25.7071C3.04405 24.0087 2.66406 20.8335 2.66406 15.3327C2.66406 9.83188 3.04405 6.65671 3.36397 4.95826C3.56949 3.86715 4.4159 3.11929 5.51356 3.00015C6.99526 2.83933 9.60986 2.66602 13.9974 2.66602C15.2879 2.66602 16.4251 2.68104 17.4251 2.7063Z" fill="#6E768B"/>
<path d="M25.2221 10.5543C23.4091 11.013 21.2685 11.0435 19.4195 10.4753C18.6379 10.2351 18.0284 9.6226 17.7646 8.84446C17.1073 6.90606 16.945 4.53334 17.428 2.70703C17.428 2.70703 18.9695 3.30008 21.8029 6.15008C24.6362 9.00006 25.2221 10.5543 25.2221 10.5543Z" fill="#424244"/>
<path d="M22.6693 15.334C26.7193 15.334 30.0026 18.6173 30.0026 22.6673C30.0026 26.7174 26.7193 30.0007 22.6693 30.0007C18.6192 30.0007 15.3359 26.7174 15.3359 22.6673C15.3359 18.6173 18.6192 15.334 22.6693 15.334Z" fill="#FF1F00"/>
<path d="M21.3384 19.119C21.3121 18.6793 21.4941 18.2332 21.9417 18.1009C22.1389 18.0425 22.3814 18 22.6693 18C22.9571 18 23.1997 18.0425 23.3968 18.1009C23.8445 18.2332 24.0264 18.6793 24.0001 19.119C23.9362 20.1901 23.8025 22.2411 23.6585 23.3211C23.6178 23.6263 23.4443 23.9041 23.1224 23.9627C23.0007 23.9849 22.8511 24 22.6693 24C22.4875 24 22.3379 23.9849 22.2161 23.9627C21.8942 23.9041 21.7207 23.6263 21.6801 23.3211C21.5361 22.2411 21.4023 20.1901 21.3384 19.119Z" fill="#6E768B"/>
<path d="M24.0026 26.0013C24.0026 26.7377 23.4057 27.3346 22.6693 27.3346C21.9329 27.3346 21.3359 26.7377 21.3359 26.0013C21.3359 25.2649 21.9329 24.668 22.6693 24.668C23.4057 24.668 24.0026 25.2649 24.0026 26.0013Z" fill="#6E768B"/>
</svg>
