<svg width="32" height="32" viewBox="0 0 32 32" fill="none" xmlns="http://www.w3.org/2000/svg">
<path d="M19.6294 2.70842C19.6294 2.70842 21.2616 3.33268 24.2616 6.33268C27.2506 9.32168 27.8774 10.9567 27.8819 10.9687C27.9548 12.393 28 14.0587 28 15.9993C28 21.7897 27.5977 25.1319 27.2589 26.9198C27.0413 28.0683 26.1451 28.8555 24.9829 28.9809C23.4141 29.1502 20.6457 29.3327 16 29.3327C11.3543 29.3327 8.58593 29.1502 7.01713 28.9809C5.85489 28.8555 4.95869 28.0683 4.74107 26.9198C4.40233 25.1319 4 21.7897 4 15.9993C4 10.209 4.40233 6.86675 4.74107 5.07891C4.95869 3.93037 5.85489 3.14315 7.01713 3.01774C8.58593 2.84845 11.3543 2.66602 16 2.66602C17.3665 2.66602 18.5705 2.68182 19.6294 2.70842Z" fill="#6E768B"/>
<path d="M19.6294 2.70842C19.6294 2.70842 21.2616 3.33268 24.2616 6.33268C27.2506 9.32168 27.8774 10.9567 27.8819 10.9687C27.9548 12.393 28 14.0587 28 15.9993C28 21.7897 27.5977 25.1319 27.2589 26.9198C27.0413 28.0683 26.1451 28.8555 24.9829 28.9809C23.4141 29.1502 20.6457 29.3327 16 29.3327C11.3543 29.3327 8.58593 29.1502 7.01713 28.9809C5.85489 28.8555 4.95869 28.0683 4.74107 26.9198C4.40233 25.1319 4 21.7897 4 15.9993C4 10.209 4.40233 6.86675 4.74107 5.07891C4.95869 3.93037 5.85489 3.14315 7.01713 3.01774C8.58593 2.84845 11.3543 2.66602 16 2.66602C17.3665 2.66602 18.5705 2.68182 19.6294 2.70842Z" fill="#6E768B"/>
<path d="M9.33594 21.9993C9.33594 22.7357 9.93287 23.3327 10.6693 23.3327H20.0026C20.739 23.3327 21.3359 22.7357 21.3359 21.9993C21.3359 21.2629 20.739 20.666 20.0026 20.666H10.6693C9.93287 20.666 9.33594 21.2629 9.33594 21.9993Z" fill="#424244"/>
<path d="M9.33594 15.9993C9.33594 16.7357 9.93287 17.3327 10.6693 17.3327H16.0026C16.739 17.3327 17.3359 16.7357 17.3359 15.9993C17.3359 15.2629 16.739 14.666 16.0026 14.666H10.6693C9.93287 14.666 9.33594 15.2629 9.33594 15.9993Z" fill="#424244"/>
<path d="M27.8845 10.9693C25.9649 11.4521 23.6983 11.4842 21.7407 10.8861C20.913 10.6333 20.2677 9.98853 19.9883 9.16946C19.2925 7.129 19.1205 4.63142 19.632 2.70898C19.632 2.70898 21.2641 3.33325 24.2641 6.33325C27.2641 9.33326 27.8845 10.9693 27.8845 10.9693Z" fill="#424244"/>
</svg>
